<?xml version="1.0" standalone="no"?>
<!DOCTYPE svg PUBLIC "-//W3C//DTD SVG 1.1//EN" "http://www.w3.org/Graphics/SVG/1.1/DTD/svg11.dtd" >
<svg xmlns="http://www.w3.org/2000/svg" xmlns:xlink="http://www.w3.org/1999/xlink" version="1.1">
<metadata></metadata>
<defs>
<font id="runescape_plain_11regular" horiz-adv-x="896" >
<font-face units-per-em="2048" ascent="1536" descent="-512" />
<missing-glyph horiz-adv-x="384" />
<glyph horiz-adv-x="0" />
<glyph horiz-adv-x="682" />
<glyph unicode=" "  horiz-adv-x="384" />
<glyph unicode="&#x09;" horiz-adv-x="384" />
<glyph unicode="&#xa0;" horiz-adv-x="384" />
<glyph unicode="!" horiz-adv-x="384" d="M128 128h128v128h-128v-128zM128 384h128v768h-128v-768z" />
<glyph unicode="&#x22;" horiz-adv-x="640" d="M128 640h128v384h-128v-384zM384 640h128v384h-128v-384z" />
<glyph unicode="#" horiz-adv-x="1152" d="M128 384h128v-256h128v256h128v-256h128v256h384v128h-256v256h256v128h-128v256h-128v-256h-128v256h-128v-256h-384v-128h256v-256h-256v-128zM512 512v256h128v-256h-128z" />
<glyph unicode="$" d="M128 256h128v128h-128v-128zM128 768h128v256h-128v-256zM256 128h128v-128h128v128h128v128h128v256h-128v-256h-128v256h128v128h-128v384h128v128h-128v128h-128v-128h-128v-128h128v-256h-128v-128h128v-384h-128v-128zM640 896h128v128h-128v-128z" />
<glyph unicode="%" horiz-adv-x="1408" d="M128 640h128v256h-128v-256zM256 512h256v128h-256v-128zM256 896h256v128h-256v-128zM384 128h128v128h128v128h128v-128h128v-128h256v128h128v256h-128v-256h-256v256h256v128h-256v-128h-128v256h128v128h128v128h-128v-128h-128v-128h-128v128h-128v-256h128v-256 h-128v-128h-128v-128z" />
<glyph unicode="&#x26;" d="M0 384h128v128h-128v-128zM128 256h128v128h-128v-128zM128 512h128v128h-128v-128zM128 768h128v256h-128v-256zM256 128h256v128h-256v-128zM256 640h256v128h-256v-128zM256 1024h256v128h-256v-128zM512 256h128v128h-128v-128zM512 512h128v128h-128v-128zM512 768 h128v256h-128v-256zM640 384h128v128h-128v-128zM768 256h128v128h-128v-128z" />
<glyph unicode="'" horiz-adv-x="512" d="M128 640h128v128h128v256h-256v-128h128v-128h-128v-128z" />
<glyph unicode="(" horiz-adv-x="384" d="M128 128h128v896h-128v-896zM256 0h128v128h-128v-128zM256 1024h128v128h-128v-128z" />
<glyph unicode=")" horiz-adv-x="384" d="M0 0h128v128h128v896h-128v-896h-128v-128zM0 1024h128v128h-128v-128z" />
<glyph unicode="*" d="M128 896h256v-128h-128v-128h128v128h128v128h256v128h-256v128h-128v-128h-256v-128zM512 640h128v128h-128v-128z" />
<glyph unicode="+" d="M128 512h256v-256h128v256h256v128h-256v256h-128v-256h-256v-128z" />
<glyph unicode="," horiz-adv-x="512" d="M128 128h128v128h128v256h-256v-128h128v-128h-128v-128z" />
<glyph unicode="-" horiz-adv-x="640" d="M128 512h384v128h-384v-128z" />
<glyph unicode="." horiz-adv-x="384" d="M128 128h128v128h-128v-128z" />
<glyph unicode="/" horiz-adv-x="512" d="M128 128h128v256h128v512h128v256h-128v-256h-128v-512h-128v-256z" />
<glyph unicode="0" d="M128 256h128v768h-128v-768zM256 128h384v128h-384v-128zM256 1024h384v128h-384v-128zM640 256h128v768h-128v-768z" />
<glyph unicode="1" horiz-adv-x="512" d="M128 128h384v128h-128v896h-128v-128h-128v-128h128v-640h-128v-128z" />
<glyph unicode="2" d="M128 128h640v128h-512v128h128v128h128v128h-128v-128h-128v-128h-128v-256zM128 896h128v128h384v-256h128v256h-128v128h-384v-128h-128v-128zM512 640h128v128h-128v-128z" />
<glyph unicode="3" horiz-adv-x="768" d="M128 256h128v128h-128v-128zM128 896h128v128h256v-256h128v256h-128v128h-256v-128h-128v-128zM256 128h256v128h-256v-128zM256 640h256v128h-256v-128zM512 256h128v384h-128v-384z" />
<glyph unicode="4" horiz-adv-x="640" d="M128 384h256v-256h128v256h128v128h-128v256h-128v-256h-128v640h-128v-768z" />
<glyph unicode="5" horiz-adv-x="768" d="M128 256h128v128h-128v-128zM128 640h384v128h-256v256h384v128h-512v-512zM256 128h256v128h-256v-128zM512 256h128v384h-128v-384z" />
<glyph unicode="6" d="M128 256h128v256h128v128h-128v256h-128v-640zM256 128h384v128h-384v-128zM256 896h128v128h-128v-128zM384 640h256v128h-256v-128zM384 1024h256v128h-256v-128zM640 256h128v384h-128v-384zM640 896h128v128h-128v-128z" />
<glyph unicode="7" horiz-adv-x="768" d="M128 128h128v256h128v256h128v256h128v256h-512v-128h384v-128h-128v-256h-128v-256h-128v-256z" />
<glyph unicode="8" d="M128 256h128v384h-128v-384zM128 768h128v256h-128v-256zM256 128h384v128h-384v-128zM256 640h384v128h-384v-128zM256 1024h384v128h-384v-128zM640 256h128v384h-128v-384zM640 768h128v256h-128v-256z" />
<glyph unicode="9" d="M128 768h128v256h-128v-256zM256 640h128v128h-128v-128zM256 1024h384v128h-384v-128zM384 512h256v-384h128v896h-128v-384h-256v-128z" />
<glyph unicode=":" horiz-adv-x="384" d="M128 128h128v128h-128v-128zM128 512h128v128h-128v-128z" />
<glyph unicode=";" horiz-adv-x="512" d="M128 0h128v128h128v256h-128v-256h-128v-128zM256 640h128v128h-128v-128z" />
<glyph unicode="&#x3c;" horiz-adv-x="768" d="M128 640h128v128h-128v-128zM256 512h256v128h-256v-128zM256 768h256v128h-256v-128zM512 384h128v128h-128v-128zM512 896h128v128h-128v-128z" />
<glyph unicode="=" horiz-adv-x="768" d="M128 384h512v128h-512v-128zM128 640h512v128h-512v-128z" />
<glyph unicode="&#x3e;" horiz-adv-x="768" d="M128 384h128v128h256v128h128v128h-128v-128h-256v-128h-128v-128zM128 896h128v128h-128v-128zM256 768h256v128h-256v-128z" />
<glyph unicode="?" horiz-adv-x="768" d="M0 896h128v128h384v128h-384v-128h-128v-128zM256 128h128v128h-128v-128zM256 384h128v256h128v128h128v256h-128v-256h-128v-128h-128v-256z" />
<glyph unicode="@" horiz-adv-x="1280" d="M128 384h128v512h-128v-512zM256 256h128v128h-128v-128zM256 896h128v128h-128v-128zM384 128h640v128h-640v-128zM384 512h128v256h-128v-256zM384 1024h512v128h-512v-128zM512 384h256v128h-256v-128zM512 768h256v128h-256v-128zM768 512h128v256h-128v-256z M896 384h128v128h128v384h-128v-384h-128v-128zM896 896h128v128h-128v-128z" />
<glyph unicode="A" d="M128 128h128v384h384v-384h128v768h-128v-256h-384v256h128v128h128v-128h128v128h-128v128h-128v-128h-128v-128h-128v-768z" />
<glyph unicode="B" d="M128 128h512v128h-384v384h384v128h-384v256h384v128h-512v-1024zM640 256h128v384h-128v-384zM640 768h128v256h-128v-256z" />
<glyph unicode="C" d="M128 384h128v512h-128v-512zM256 256h128v128h-128v-128zM256 896h128v128h-128v-128zM384 128h256v128h-256v-128zM384 1024h256v128h-256v-128zM640 256h128v128h-128v-128zM640 896h128v128h-128v-128z" />
<glyph unicode="D" d="M128 128h512v128h-384v768h256v128h-384v-1024zM512 896h128v128h-128v-128zM640 256h128v640h-128v-640z" />
<glyph unicode="E" horiz-adv-x="640" d="M128 128h512v128h-384v384h256v128h-256v256h384v128h-512v-1024z" />
<glyph unicode="F" horiz-adv-x="640" d="M128 128h128v512h256v128h-256v256h384v128h-512v-1024z" />
<glyph unicode="G" d="M128 384h128v512h-128v-512zM256 256h128v128h-128v-128zM256 896h128v128h-128v-128zM384 128h256v128h-256v-128zM384 1024h256v128h-256v-128zM512 512h128v128h-128v-128zM640 256h128v256h-128v-256zM640 896h128v128h-128v-128z" />
<glyph unicode="H" d="M128 128h128v512h384v-512h128v1024h-128v-384h-384v384h-128v-1024z" />
<glyph unicode="I" horiz-adv-x="384" d="M128 128h128v1024h-128v-1024z" />
<glyph unicode="J" horiz-adv-x="768" d="M128 256h128v256h-128v-256zM128 1024h384v-768h128v768h128v128h-640v-128zM256 128h256v128h-256v-128z" />
<glyph unicode="K" horiz-adv-x="768" d="M128 128h128v384h128v-128h128v-128h128v128h-128v128h-128v256h128v128h128v128h-128v-128h-128v-128h-128v384h-128v-1024zM640 128h128v128h-128v-128z" />
<glyph unicode="L" horiz-adv-x="640" d="M128 128h512v128h-384v896h-128v-1024z" />
<glyph unicode="M" horiz-adv-x="1024" d="M128 128h128v768h128v-128h256v128h-256v128h-128v128h-128v-1024zM640 896h128v-768h128v1024h-128v-128h-128v-128z" />
<glyph unicode="N" d="M128 128h128v768h128v-384h128v384h-128v128h-128v128h-128v-1024zM512 256h128v-128h128v1024h-128v-640h-128v-256z" />
<glyph unicode="O" d="M128 256h128v768h-128v-768zM256 128h384v128h-384v-128zM256 1024h384v128h-384v-128zM640 256h128v768h-128v-768z" />
<glyph unicode="P" d="M128 128h128v384h256v128h128v128h128v256h-128v-256h-128v-128h-256v384h384v128h-512v-1024z" />
<glyph unicode="Q" d="M128 256h128v768h-128v-768zM256 128h256v128h-256v-128zM256 1024h384v128h-384v-128zM384 384h128v128h-128v-128zM512 256h128v128h-128v-128zM640 128h128v128h-128v-128zM640 384h128v640h-128v-640z" />
<glyph unicode="R" d="M128 128h128v512h128v-128h128v-128h128v128h-128v128h128v128h128v256h-128v-256h-384v256h384v128h-512v-1024zM640 128h128v256h-128v-256z" />
<glyph unicode="S" d="M128 256h128v128h-128v-128zM128 768h128v256h-128v-256zM256 128h256v128h-256v-128zM256 640h384v128h-384v-128zM256 1024h384v128h-384v-128zM512 256h128v128h-128v-128zM640 384h128v256h-128v-256zM640 896h128v128h-128v-128z" />
<glyph unicode="T" horiz-adv-x="640" d="M0 1024h256v-896h128v896h256v128h-640v-128z" />
<glyph unicode="U" d="M128 256h128v896h-128v-896zM256 128h256v128h-256v-128zM512 256h128v-128h128v1024h-128v-768h-128v-128z" />
<glyph unicode="V" d="M128 768h128v384h-128v-384zM256 384h128v384h-128v-384zM384 128h128v256h128v384h128v384h-128v-384h-128v-384h-128v-256z" />
<glyph unicode="W" horiz-adv-x="1152" d="M128 384h128v768h-128v-768zM256 256h128v128h-128v-128zM384 128h384v128h-128v384h-128v-384h-128v-128zM768 256h128v128h-128v-128zM896 384h128v768h-128v-768z" />
<glyph unicode="X" d="M128 128h128v128h128v384h128v-384h128v384h-128v128h128v128h128v256h-128v-256h-128v-128h-128v-128h-128v-384h-128v-128zM128 896h128v256h-128v-256zM256 768h128v128h-128v-128zM640 128h128v128h-128v-128z" />
<glyph unicode="Y" horiz-adv-x="640" d="M0 896h128v256h-128v-256zM128 768h128v128h-128v-128zM256 128h128v640h128v128h128v256h-128v-256h-128v-128h-128v-640z" />
<glyph unicode="Z" d="M128 128h640v128h-512v256h128v128h128v128h-128v-128h-128v-128h-128v-384zM128 1024h512v-128h128v256h-640v-128zM512 768h128v128h-128v-128z" />
<glyph unicode="[" horiz-adv-x="512" d="M128 0h384v128h-256v896h256v128h-384v-1152z" />
<glyph unicode="\" horiz-adv-x="512" d="M0 896h128v256h-128v-256zM128 384h128v512h-128v-512zM256 128h128v256h-128v-256z" />
<glyph unicode="]" horiz-adv-x="512" d="M0 0h384v1152h-384v-128h256v-896h-256v-128z" />
<glyph unicode="^" d="M128 384h128v128h128v256h128v-256h128v256h-128v128h-128v-128h-128v-256h-128v-128zM640 384h128v128h-128v-128z" />
<glyph unicode="_" d="M128 128h640v128h-640v-128z" />
<glyph unicode="`" horiz-adv-x="512" d="M128 640h256v128h-128v128h-128v-256zM256 896h128v128h-128v-128z" />
<glyph unicode="a" horiz-adv-x="768" d="M128 256h128v128h-128v-128zM128 512h128v128h-128v-128zM256 128h384v512h-128v-128h-256v-128h256v-128h-256v-128zM256 640h256v128h-256v-128z" />
<glyph unicode="b" horiz-adv-x="768" d="M128 128h384v128h-256v384h256v128h-256v384h-128v-1024zM512 256h128v384h-128v-384z" />
<glyph unicode="c" horiz-adv-x="640" d="M128 256h128v384h-128v-384zM256 128h256v128h-256v-128zM256 640h256v128h-256v-128z" />
<glyph unicode="d" horiz-adv-x="768" d="M128 256h128v384h-128v-384zM256 128h384v1152h-128v-512h-256v-128h256v-384h-256v-128z" />
<glyph unicode="e" horiz-adv-x="768" d="M128 256h128v-128h384v128h-384v128h256v128h-256v128h-128v-384zM256 640h256v128h-256v-128zM512 512h128v128h-128v-128z" />
<glyph unicode="f" horiz-adv-x="640" d="M128 -128v-128h128v128h128v512h128v128h-128v256h128v128h-128v-128h-128v-256h-128v-128h128v-512h-128zM512 640h128v128h-128v-128z" />
<glyph unicode="g" horiz-adv-x="768" d="M128 0v-128h128v128h-128zM128 256h128v384h-128v-384zM256 -128v-128h256v128h-256zM256 128h256v-256h128v768h-128v-384h-256v-128zM256 640h256v128h-256v-128z" />
<glyph unicode="h" horiz-adv-x="768" d="M128 128h128v512h256v128h-256v384h-128v-1024zM512 128h128v512h-128v-512z" />
<glyph unicode="i" horiz-adv-x="384" d="M128 128h128v512h-128v-512zM128 768h128v128h-128v-128z" />
<glyph unicode="j" horiz-adv-x="640" d="M128 128v-256h128v256h-128zM256 -128v-128h128v128h128v768h-128v-768h-128zM384 768h128v128h-128v-128z" />
<glyph unicode="k" horiz-adv-x="640" d="M128 128h128v256h128v-128h128v128h-128v256h128v128h-128v-128h-128v512h-128v-1024zM512 128h128v128h-128v-128z" />
<glyph unicode="l" horiz-adv-x="384" d="M128 128h128v1024h-128v-1024z" />
<glyph unicode="m" d="M128 128h128v512h128v128h-128v-128h-128v-512zM384 128h128v512h128v128h-128v-128h-128v-512zM640 128h128v512h-128v-512z" />
<glyph unicode="n" horiz-adv-x="768" d="M128 128h128v512h256v128h-384v-640zM512 128h128v512h-128v-512z" />
<glyph unicode="o" horiz-adv-x="768" d="M128 256h128v384h-128v-384zM256 128h256v128h-256v-128zM256 640h256v128h-256v-128zM512 256h128v384h-128v-384z" />
<glyph unicode="p" horiz-adv-x="768" d="M128 -256h128v384h256v128h128v384h-128v-384h-256v384h256v128h-256v-128h-128v-896z" />
<glyph unicode="q" horiz-adv-x="768" d="M128 256h128v384h-128v-384zM256 128h256v-384h128v896h-128v-384h-256v-128zM256 640h256v128h-256v-128z" />
<glyph unicode="r" horiz-adv-x="640" d="M128 128h128v384h128v128h128v128h-128v-128h-128v128h-128v-640z" />
<glyph unicode="s" horiz-adv-x="768" d="M128 128h384v128h-384v-128zM128 512h128v128h-128v-128zM256 384h256v128h-256v-128zM256 640h384v128h-384v-128zM512 256h128v128h-128v-128z" />
<glyph unicode="t" horiz-adv-x="512" d="M128 256h128v384h128v128h-128v256h-128v-768zM256 128h128v128h-128v-128z" />
<glyph unicode="u" horiz-adv-x="768" d="M128 256h128v512h-128v-512zM256 128h256v128h-256v-128zM512 256h128v512h-128v-512z" />
<glyph unicode="v" d="M128 512h128v256h-128v-256zM256 256h128v256h-128v-256zM384 128h128v128h128v256h128v256h-128v-256h-128v-256h-128v-128z" />
<glyph unicode="w" d="M128 256h128v512h-128v-512zM256 128h384v128h-128v256h-128v-256h-128v-128zM640 256h128v512h-128v-512z" />
<glyph unicode="x" d="M128 128h128v128h128v128h128v-128h128v128h-128v128h128v128h128v128h-128v-128h-128v-128h-128v-128h-128v-128h-128v-128zM128 640h128v128h-128v-128zM256 512h128v128h-128v-128zM640 128h128v128h-128v-128z" />
<glyph unicode="y" horiz-adv-x="768" d="M128 0v-128h128v128h-128zM128 384h128v384h-128v-384zM256 -128v-128h256v128h-256zM256 256h256v-384h128v896h-128v-384h-256v-128z" />
<glyph unicode="z" horiz-adv-x="768" d="M128 128h512v128h-384v128h128v128h-128v-128h-128v-256zM128 640h256v-128h128v128h128v128h-512v-128z" />
<glyph unicode="{" horiz-adv-x="384" d="M0 512h128v128h-128v-128zM128 128h128v384h-128v-384zM128 640h128v384h-128v-384zM256 0h128v128h-128v-128zM256 1024h128v128h-128v-128z" />
<glyph unicode="|" horiz-adv-x="384" d="M128 0h128v1152h-128v-1152z" />
<glyph unicode="}" horiz-adv-x="384" d="M0 0h128v128h128v384h128v128h-128v-128h-128v-384h-128v-128zM0 1024h128v128h-128v-128zM128 640h128v384h-128v-384z" />
<glyph unicode="~" horiz-adv-x="1024" d="M128 512h128v128h256v-128h256v128h128v128h-128v-128h-256v128h-256v-128h-128v-128z" />
<glyph unicode="&#xa1;" horiz-adv-x="384" d="M128 128h128v768h-128v-768zM128 1024h128v128h-128v-128z" />
<glyph unicode="&#xa2;" d="M128 128h128v128h128v-128h256v128h-256v128h128v128h128v128h128v128h-384v-128h128v-128h-128v128h-128v-384h-128v-128z" />
<glyph unicode="&#xa3;" d="M128 128h640v128h-384v256h128v128h-128v384h-128v-384h-128v-128h128v-256h-128v-128zM384 1024h256v128h-256v-128zM640 896h128v128h-128v-128z" />
<glyph unicode="&#xa4;" horiz-adv-x="1024" d="M128 128h128v128h128v-128h256v128h128v128h128v256h-128v128h128v128h-128v-128h-128v128h-256v-128h-128v-128h-128v-256h128v-128h-128v-128zM128 768h128v128h-128v-128zM384 384v256h256v-256h-256zM768 128h128v128h-128v-128z" />
<glyph unicode="&#xa5;" d="M128 384h256v-128h-128v-128h384v128h-128v128h256v128h-256v128h256v128h-128v128h-128v-128h-128v128h-128v-128h-128v-128h256v-128h-256v-128zM128 896h128v256h-128v-256zM640 896h128v256h-128v-256z" />
<glyph unicode="&#xa6;" horiz-adv-x="384" d="M128 128h128v384h-128v-384zM128 768h128v384h-128v-384z" />
<glyph unicode="&#xa7;" horiz-adv-x="1024" d="M128 256h128v-128h384v-128h128v128h-128v128h128v128h128v384h-128v128h-384v-128h-128v-128h-128v-384zM256 0v-128h384v128h-384zM256 896h128v128h-128v-128zM384 256v384h128v128h128v-384h-128v-128h-128zM384 1024h384v128h-384v-128z" />
<glyph unicode="&#xa8;" horiz-adv-x="640" d="M128 1024h128v128h-128v-128zM384 1024h128v128h-128v-128z" />
<glyph unicode="&#xa9;" horiz-adv-x="1280" d="M128 384h128v640h-128v-640zM256 256h128v128h-128v-128zM256 1024h128v128h-128v-128zM384 128h512v128h-512v-128zM384 512h128v384h-128v-384zM384 1152h512v128h-512v-128zM512 384h256v128h-256v-128zM512 896h256v128h-256v-128zM896 256h128v128h-128v-128z M896 1024h128v128h-128v-128zM1024 384h128v640h-128v-640z" />
<glyph unicode="&#xaa;" horiz-adv-x="768" d="M128 384h512v128h-512v-128zM128 768h128v128h-128v-128zM128 1024h128v128h-128v-128zM256 640h384v512h-128v-128h-256v-128h256v-128h-256v-128zM256 1152h256v128h-256v-128z" />
<glyph unicode="&#xab;" d="M128 896h128v128h-128v-128zM256 768h128v128h-128v-128zM256 1024h128v128h-128v-128zM512 896h128v128h-128v-128zM640 768h128v128h-128v-128zM640 1024h128v128h-128v-128z" />
<glyph unicode="&#xac;" d="M128 256h512v-128h128v256h-640v-128z" />
<glyph unicode="&#xad;" horiz-adv-x="512" d="M128 512h256v128h-256v-128z" />
<glyph unicode="&#xae;" horiz-adv-x="1280" d="M128 384h128v640h-128v-640zM256 256h128v128h-128v-128zM256 1024h128v128h-128v-128zM384 128h512v128h-512v-128zM384 512h128v128h256v128h128v128h-128v-128h-256v128h256v128h-256v-128h-128v-384zM384 1152h512v128h-512v-128zM768 512h128v128h-128v-128z M896 256h128v128h-128v-128zM896 1024h128v128h-128v-128zM1024 384h128v640h-128v-640z" />
<glyph unicode="&#xaf;" horiz-adv-x="512" d="M128 1024h256v128h-256v-128z" />
<glyph unicode="&#xb0;" horiz-adv-x="640" d="M128 896h128v128h-128v-128zM256 768h128v128h128v128h-128v-128h-128v-128zM256 1024h128v128h-128v-128z" />
<glyph unicode="&#xb1;" d="M128 128h640v128h-256v256h256v128h-256v256h-128v-256h-256v-128h256v-256h-256v-128z" />
<glyph unicode="&#xb2;" horiz-adv-x="640" d="M128 640h384v128h-256v128h-128v-256zM128 1152h256v128h-256v-128zM256 896h128v128h-128v-128zM384 1024h128v128h-128v-128z" />
<glyph unicode="&#xb3;" horiz-adv-x="640" d="M128 640h256v128h-256v-128zM128 1152h256v128h-256v-128zM256 896h128v-128h128v128h-128v128h-128v-128zM384 1024h128v128h-128v-128z" />
<glyph unicode="&#xb4;" horiz-adv-x="640" d="M128 896h128v128h-128v-128zM256 1024h128v-128h128v256h-256v-128z" />
<glyph unicode="&#xb5;" horiz-adv-x="768" d="M128 -128h128v256h256v128h128v512h-128v-512h-256v512h-128v-896z" />
<glyph unicode="&#xb6;" d="M128 768h128v256h-128v-256zM256 640h128v-512h512v128h-128v768h128v128h-640v-128h128v-256h-128v-128zM512 256v256h128v-256h-128zM512 640v384h128v-384h-128z" />
<glyph unicode="&#xb7;" horiz-adv-x="384" d="M128 640h128v128h-128v-128z" />
<glyph unicode="&#xb8;" horiz-adv-x="512" d="M128 0h128v128h-128v-128zM128 -128v-128h128v128h128v128h-128v-128h-128z" />
<glyph unicode="&#xb9;" horiz-adv-x="512" d="M128 1152h128v-512h128v640h-256v-128z" />
<glyph unicode="&#xba;" horiz-adv-x="640" d="M128 512h384v128h-384v-128zM128 896h128v128h-128v-128zM256 768h128v128h128v128h-128v-128h-128v-128zM256 1024h128v128h-128v-128z" />
<glyph unicode="&#xbb;" d="M128 768h128v128h128v128h-128v-128h-128v-128zM128 1024h128v128h-128v-128zM512 768h128v128h128v128h-128v-128h-128v-128zM512 1024h128v128h-128v-128z" />
<glyph unicode="&#xbc;" horiz-adv-x="1152" d="M0 1152h128v-512h128v640h-256v-128zM128 256h128v128h128v128h128v128h128v128h128v128h128v128h128v128h-128v-128h-128v-128h-128v-128h-128v-128h-128v-128h-128v-128h-128v-128zM640 128h256v-128h128v128h128v128h-128v128h-128v-128h-128v384h-128v-512z" />
<glyph unicode="&#xbd;" horiz-adv-x="1152" d="M0 1152h128v-512h128v640h-256v-128zM128 256h128v128h128v128h128v128h128v-128h256v-128h128v128h-128v128h-256v128h128v128h128v128h-128v-128h-128v-128h-128v-128h-128v-128h-128v-128h-128v-128zM640 0h384v128h-256v128h-128v-256zM768 256h128v128h-128v-128z " />
<glyph unicode="&#xbe;" horiz-adv-x="1152" d="M0 128h128v128h128v128h128v128h128v128h128v128h128v128h128v128h128v128h-128v-128h-128v-128h-128v-128h-128v-128h-128v-128h-128v-128h-128v-128h-128v-128zM128 640h256v128h-256v-128zM128 1152h256v128h-256v-128zM256 896h128v128h-128v-128zM384 768h128v128 h-128v-128zM384 1024h128v128h-128v-128zM640 128h256v-128h128v128h128v128h-128v128h-128v-128h-128v384h-128v-512z" />
<glyph unicode="&#xbf;" horiz-adv-x="768" d="M128 256h128v256h-128v-256zM256 128h384v128h-384v-128zM256 512h128v128h-128v-128zM384 640h128v256h-128v-256zM384 1024h128v128h-128v-128zM640 256h128v128h-128v-128z" />
<glyph unicode="&#xc0;" d="M128 128h128v256h384v-256h128v640h-128v-256h-384v256h128v128h128v-128h128v128h-128v128h128v128h-128v-128h-128v-128h-128v-128h-128v-640zM256 1152h256v128h-256v-128z" />
<glyph unicode="&#xc1;" d="M128 128h128v256h384v-256h128v640h-128v-256h-384v256h128v128h128v-128h128v128h-128v128h-128v-128h-128v-128h-128v-640zM256 1024h128v128h-128v-128zM384 1152h256v128h-256v-128z" />
<glyph unicode="&#xc2;" d="M128 128h128v256h384v-256h128v640h-128v-256h-384v256h128v128h128v-128h128v128h-128v128h-128v-128h-128v-128h-128v-640zM128 1024h128v128h384v128h-384v-128h-128v-128zM640 1024h128v128h-128v-128z" />
<glyph unicode="&#xc3;" d="M128 128h128v256h384v-256h128v640h-128v-256h-384v256h128v128h128v-128h128v128h-128v128h128v128h128v128h-128v-128h-256v-256h-128v-128h-128v-640zM128 1024h128v128h128v128h-128v-128h-128v-128z" />
<glyph unicode="&#xc4;" d="M128 128h128v256h384v-256h128v640h-128v-256h-384v256h128v128h128v-128h128v128h-128v128h-128v-128h-128v-128h-128v-640zM128 1024h128v256h-128v-256zM640 1024h128v256h-128v-256z" />
<glyph unicode="&#xc5;" d="M128 128h128v256h384v-256h128v640h-128v-256h-384v256h128v128h128v-128h128v128h-128v128h128v128h128v128h-128v-128h-384v-128h128v-128h-128v-128h-128v-640zM128 1152h128v128h-128v-128z" />
<glyph unicode="&#xc6;" horiz-adv-x="1152" d="M128 128h128v384h384v-384h512v128h-384v384h256v128h-256v256h384v128h-512v-128h-128v-128h128v-256h-384v256h128v128h128v128h-128v-128h-128v-128h-128v-768z" />
<glyph unicode="&#xc7;" d="M128 384h128v512h-128v-512zM256 256h128v128h-128v-128zM256 896h128v128h-128v-128zM384 0h128v128h128v128h-256v-256zM384 -128v-128h128v128h128v128h-128v-128h-128zM384 1024h256v128h-256v-128zM640 256h128v128h-128v-128zM640 896h128v128h-128v-128z" />
<glyph unicode="&#xc8;" horiz-adv-x="768" d="M128 128h512v128h-384v256h256v128h-256v256h384v128h-128v128h-128v-128h-256v-896zM128 1152h256v128h-256v-128z" />
<glyph unicode="&#xc9;" horiz-adv-x="768" d="M128 128h512v128h-384v256h256v128h-256v256h384v128h-256v128h-128v-128h-128v-896zM384 1152h256v128h-256v-128z" />
<glyph unicode="&#xca;" horiz-adv-x="768" d="M128 128h512v128h-384v256h256v128h-256v256h384v256h-128v-128h-256v128h256v128h-256v-128h-128v-1024z" />
<glyph unicode="&#xcb;" horiz-adv-x="768" d="M128 128h512v128h-384v256h256v128h-256v256h384v128h-512v-896zM256 1152h128v128h-128v-128zM512 1152h128v128h-128v-128z" />
<glyph unicode="&#xcc;" horiz-adv-x="384" d="M0 1152h256v128h-256v-128zM128 128h128v896h128v128h-128v-128h-128v-896z" />
<glyph unicode="&#xcd;" horiz-adv-x="384" d="M0 1024h128v128h-128v-128zM128 128h128v896h-128v-896zM128 1152h256v128h-256v-128z" />
<glyph unicode="&#xce;" horiz-adv-x="512" d="M0 1024h128v128h-128v-128zM128 128h128v896h-128v-896zM128 1152h256v128h-256v-128zM384 1024h128v128h-128v-128z" />
<glyph unicode="&#xcf;" horiz-adv-x="384" d="M0 1152h128v128h-128v-128zM128 128h128v896h-128v-896zM256 1152h128v128h-128v-128z" />
<glyph unicode="&#xd0;" d="M0 512h128v-384h512v128h-384v256h128v128h-128v384h256v128h-384v-512h-128v-128zM512 896h128v128h-128v-128zM640 256h128v640h-128v-640z" />
<glyph unicode="&#xd1;" d="M128 128h128v640h128v-384h128v-256h256v896h-128v-640h-128v384h-128v128h-128v256h128v-128h256v128h128v128h-128v-128h-256v128h-128v-128h-128v-1024z" />
<glyph unicode="&#xd2;" d="M128 256h128v640h-128v-640zM256 128h384v128h-384v-128zM256 896h384v256h-128v-128h-256v-128zM256 1152h256v128h-256v-128zM640 256h128v640h-128v-640z" />
<glyph unicode="&#xd3;" d="M128 256h128v640h-128v-640zM256 128h384v128h-384v-128zM256 896h384v128h-256v128h256v128h-256v-128h-128v-256zM640 256h128v640h-128v-640z" />
<glyph unicode="&#xd4;" d="M128 256h128v640h-128v-640zM128 1024h128v128h-128v-128zM256 128h384v128h-384v-128zM256 896h384v128h-384v-128zM256 1152h384v128h-384v-128zM640 256h128v640h-128v-640zM640 1024h128v128h-128v-128z" />
<glyph unicode="&#xd5;" d="M128 256h128v640h-128v-640zM128 1024h128v128h-128v-128zM256 128h384v128h-384v-128zM256 896h384v256h-256v-128h-128v-128zM256 1152h128v128h-128v-128zM640 256h128v640h-128v-640zM640 1152h128v128h-128v-128z" />
<glyph unicode="&#xd6;" d="M128 256h128v640h-128v-640zM256 128h384v128h-384v-128zM256 896h384v128h-384v-128zM256 1152h128v128h-128v-128zM512 1152h128v128h-128v-128zM640 256h128v640h-128v-640z" />
<glyph unicode="&#xd7;" horiz-adv-x="768" d="M128 128h128v128h256v256h128v128h-128v-128h-256v-256h-128v-128zM128 512h128v128h-128v-128zM512 128h128v128h-128v-128z" />
<glyph unicode="&#xd8;" d="M128 0h128v128h384v128h128v768h-128v128h128v128h-128v-128h-384v-128h256v-256h128v-512h-256v256h128v256h-128v-256h-128v512h-128v-768h128v-128h-128v-128z" />
<glyph unicode="&#xd9;" d="M128 256h128v768h-128v-768zM128 1152h256v128h-256v-128zM256 128h256v128h-256v-128zM384 1024h128v128h-128v-128zM512 256h128v-128h128v896h-128v-640h-128v-128z" />
<glyph unicode="&#xda;" d="M128 256h128v768h-128v-768zM256 128h256v128h-256v-128zM384 1024h128v128h256v128h-256v-128h-128v-128zM512 256h128v-128h128v896h-128v-640h-128v-128z" />
<glyph unicode="&#xdb;" d="M128 256h128v640h-128v-640zM256 128h256v128h-256v-128zM256 1024h128v128h256v128h-256v-128h-128v-128zM512 256h128v-128h128v768h-128v-512h-128v-128zM640 1024h128v128h-128v-128z" />
<glyph unicode="&#xdc;" d="M128 256h128v768h-128v-768zM256 128h256v128h-256v-128zM256 1152h128v128h-128v-128zM512 256h128v-128h128v896h-128v-640h-128v-128zM512 1152h128v128h-128v-128z" />
<glyph unicode="&#xdd;" d="M128 768h128v256h-128v-256zM256 640h128v128h-128v-128zM384 128h128v512h128v128h128v256h-128v-256h-128v-128h-128v-512zM384 1024h128v128h256v128h-256v-128h-128v-128z" />
<glyph unicode="&#xde;" horiz-adv-x="640" d="M0 128h384v128h-128v128h256v128h-256v128h256v128h-256v128h128v128h-384v-128h128v-640h-128v-128zM512 512h128v128h-128v-128z" />
<glyph unicode="&#xdf;" d="M0 128h640v128h-384v384h384v128h-384v256h-128v-768h-128v-128zM256 1024h384v128h-384v-128zM640 256h128v384h-128v-384zM640 768h128v256h-128v-256z" />
<glyph unicode="&#xe0;" horiz-adv-x="768" d="M128 256h128v128h-128v-128zM128 512h128v128h-128v-128zM256 128h384v512h-128v-128h-256v-128h256v-128h-256v-128zM256 640h256v128h-256v-128zM256 1024h256v128h-256v-128zM512 896h128v128h-128v-128z" />
<glyph unicode="&#xe1;" horiz-adv-x="768" d="M128 256h128v128h-128v-128zM128 512h128v128h-128v-128zM256 128h384v512h-128v-128h-256v-128h256v-128h-256v-128zM256 640h256v128h-256v-128zM256 896h128v128h256v128h-256v-128h-128v-128z" />
<glyph unicode="&#xe2;" horiz-adv-x="768" d="M128 256h128v128h-128v-128zM128 512h128v128h-128v-128zM128 896h128v128h256v128h-256v-128h-128v-128zM256 128h384v512h-128v-128h-256v-128h256v-128h-256v-128zM256 640h256v128h-256v-128zM512 896h128v128h-128v-128z" />
<glyph unicode="&#xe3;" horiz-adv-x="768" d="M128 256h128v128h-128v-128zM128 512h128v128h-128v-128zM128 896h128v128h128v128h-128v-128h-128v-128zM256 128h384v512h-128v-128h-256v-128h256v-128h-256v-128zM256 640h256v128h-256v-128zM384 896h128v128h128v128h-128v-128h-128v-128z" />
<glyph unicode="&#xe4;" horiz-adv-x="768" d="M128 256h128v128h-128v-128zM128 512h128v128h-128v-128zM256 128h384v512h-128v-128h-256v-128h256v-128h-256v-128zM256 640h256v128h-256v-128zM256 1024h128v128h-128v-128zM512 1024h128v128h-128v-128z" />
<glyph unicode="&#xe5;" horiz-adv-x="768" d="M128 256h128v128h-128v-128zM128 512h128v128h-128v-128zM256 128h384v512h-128v-128h-256v-128h256v-128h-256v-128zM256 640h256v128h-256v-128zM256 1024h128v128h-128v-128zM384 896h128v128h128v128h-128v-128h-128v-128zM384 1152h128v128h-128v-128z" />
<glyph unicode="&#xe6;" horiz-adv-x="1152" d="M128 256h128v128h-128v-128zM128 512h128v128h-128v-128zM256 128h256v128h-256v-128zM256 384h256v-128h128v-128h384v128h-384v128h256v128h-256v128h-128v-128h-256v-128zM256 640h256v128h-256v-128zM640 640h256v128h-256v-128zM896 512h128v128h-128v-128z" />
<glyph unicode="&#xe7;" horiz-adv-x="640" d="M128 256h128v384h-128v-384zM256 0h128v128h128v128h-256v-256zM256 -128v-128h128v128h128v128h-128v-128h-128zM256 640h256v128h-256v-128z" />
<glyph unicode="&#xe8;" horiz-adv-x="768" d="M128 256h128v-128h384v128h-384v128h256v128h-256v128h-128v-384zM256 640h256v128h-256v-128zM256 1024h256v128h-256v-128zM512 512h128v128h-128v-128zM512 896h128v128h-128v-128z" />
<glyph unicode="&#xe9;" horiz-adv-x="768" d="M128 256h128v-128h384v128h-384v128h256v128h-256v128h-128v-384zM256 640h256v128h-256v-128zM256 896h128v128h256v128h-256v-128h-128v-128zM512 512h128v128h-128v-128z" />
<glyph unicode="&#xea;" horiz-adv-x="768" d="M128 256h128v-128h384v128h-384v128h256v128h-256v128h-128v-384zM128 896h128v128h256v128h-256v-128h-128v-128zM256 640h256v128h-256v-128zM512 512h128v128h-128v-128zM512 896h128v128h-128v-128z" />
<glyph unicode="&#xeb;" horiz-adv-x="768" d="M128 256h128v-128h384v128h-384v128h256v128h-256v128h-128v-384zM256 640h256v128h-256v-128zM256 1024h128v128h-128v-128zM512 512h128v128h-128v-128zM512 1024h128v128h-128v-128z" />
<glyph unicode="&#xec;" horiz-adv-x="384" d="M0 896h256v128h-256v-128zM128 128h128v512h-128v-512zM256 768h128v128h-128v-128z" />
<glyph unicode="&#xed;" horiz-adv-x="384" d="M0 768h128v128h256v128h-256v-128h-128v-128zM128 128h128v512h-128v-512z" />
<glyph unicode="&#xee;" horiz-adv-x="512" d="M0 768h128v128h256v128h-256v-128h-128v-128zM128 128h128v512h-128v-512zM384 768h128v128h-128v-128z" />
<glyph unicode="&#xef;" horiz-adv-x="384" d="M0 1024h128v128h-128v-128zM128 128h128v640h-128v-640zM256 1024h128v128h-128v-128z" />
<glyph unicode="&#xf0;" horiz-adv-x="768" d="M128 256h128v384h-128v-384zM128 1024h128v128h-128v-128zM256 128h256v128h-256v-128zM256 640h256v128h-256v-128zM256 896h256v128h-256v-128zM512 256h128v384h-128v-384zM512 1024h128v128h-128v-128z" />
<glyph unicode="&#xf1;" horiz-adv-x="768" d="M128 128h128v512h256v128h-384v-640zM128 896h128v128h128v128h-128v-128h-128v-128zM384 896h128v128h128v128h-128v-128h-128v-128zM512 128h128v512h-128v-512z" />
<glyph unicode="&#xf2;" horiz-adv-x="768" d="M128 256h128v384h-128v-384zM256 128h256v128h-256v-128zM256 640h256v128h-256v-128zM256 1024h256v128h-256v-128zM512 256h128v384h-128v-384zM512 896h128v128h-128v-128z" />
<glyph unicode="&#xf3;" horiz-adv-x="768" d="M128 256h128v384h-128v-384zM256 128h256v128h-256v-128zM256 640h256v128h-256v-128zM256 896h128v128h256v128h-256v-128h-128v-128zM512 256h128v384h-128v-384z" />
<glyph unicode="&#xf4;" horiz-adv-x="768" d="M128 256h128v384h-128v-384zM128 896h128v128h256v128h-256v-128h-128v-128zM256 128h256v128h-256v-128zM256 640h256v128h-256v-128zM512 256h128v384h-128v-384zM512 896h128v128h-128v-128z" />
<glyph unicode="&#xf5;" horiz-adv-x="768" d="M128 256h128v384h-128v-384zM128 896h128v128h128v128h-128v-128h-128v-128zM256 128h256v128h-256v-128zM256 640h256v128h-256v-128zM384 896h128v128h128v128h-128v-128h-128v-128zM512 256h128v384h-128v-384z" />
<glyph unicode="&#xf6;" horiz-adv-x="768" d="M128 256h128v384h-128v-384zM256 128h256v128h-256v-128zM256 640h256v128h-256v-128zM256 1024h128v128h-128v-128zM512 256h128v384h-128v-384zM512 1024h128v128h-128v-128z" />
<glyph unicode="&#xf7;" d="M128 512h640v128h-640v-128zM384 256h128v128h-128v-128zM384 768h128v128h-128v-128z" />
<glyph unicode="&#xf8;" horiz-adv-x="768" d="M128 0h128v128h256v128h128v384h-128v128h128v128h-128v-128h-256v-128h128v-128h128v-256h-128v256h-128v128h-128v-384h128v-128h-128v-128z" />
<glyph unicode="&#xf9;" horiz-adv-x="768" d="M128 256h128v512h-128v-512zM256 128h256v128h-256v-128zM256 896h128v128h256v128h-256v-128h-128v-128zM512 256h128v512h-128v-512z" />
<glyph unicode="&#xfa;" horiz-adv-x="768" d="M128 256h128v512h-128v-512zM256 128h256v128h-256v-128zM256 1024h256v128h-256v-128zM512 256h128v512h-128v-512zM512 896h128v128h-128v-128z" />
<glyph unicode="&#xfb;" horiz-adv-x="768" d="M128 256h128v512h-128v-512zM128 896h128v128h256v128h-256v-128h-128v-128zM256 128h256v128h-256v-128zM512 256h128v512h-128v-512zM512 896h128v128h-128v-128z" />
<glyph unicode="&#xfc;" horiz-adv-x="768" d="M128 256h128v512h-128v-512zM256 128h256v128h-256v-128zM256 1024h128v128h-128v-128zM512 256h128v512h-128v-512zM512 1024h128v128h-128v-128z" />
<glyph unicode="&#xfd;" horiz-adv-x="768" d="M128 0v-128h128v128h-128zM128 384h128v384h-128v-384zM256 -128v-128h256v128h-256zM256 256h256v-384h128v896h-128v-384h-256v-128zM256 896h128v128h256v128h-256v-128h-128v-128z" />
<glyph unicode="&#xfe;" horiz-adv-x="640" d="M0 -128v-128h256v384h256v128h-256v128h256v128h-256v256h-256v-128h128v-768h-128zM512 256h128v128h-128v-128z" />
<glyph unicode="&#xff;" horiz-adv-x="768" d="M128 0v-128h128v128h-128zM128 384h128v384h-128v-384zM256 -128v-128h256v128h-256zM256 256h256v-384h128v896h-128v-384h-256v-128zM256 1024h128v128h-128v-128zM512 1024h128v128h-128v-128z" />
<glyph unicode="&#x2000;" horiz-adv-x="682" />
<glyph unicode="&#x2001;" horiz-adv-x="1365" />
<glyph unicode="&#x2002;" horiz-adv-x="682" />
<glyph unicode="&#x2003;" horiz-adv-x="1365" />
<glyph unicode="&#x2004;" horiz-adv-x="455" />
<glyph unicode="&#x2005;" horiz-adv-x="341" />
<glyph unicode="&#x2006;" horiz-adv-x="227" />
<glyph unicode="&#x2007;" horiz-adv-x="227" />
<glyph unicode="&#x2008;" horiz-adv-x="170" />
<glyph unicode="&#x2009;" horiz-adv-x="273" />
<glyph unicode="&#x200a;" horiz-adv-x="75" />
<glyph unicode="&#x2010;" horiz-adv-x="640" d="M128 512h384v128h-384v-128z" />
<glyph unicode="&#x2011;" horiz-adv-x="640" d="M128 512h384v128h-384v-128z" />
<glyph unicode="&#x2012;" horiz-adv-x="640" d="M128 512h384v128h-384v-128z" />
<glyph unicode="&#x2013;" horiz-adv-x="1280" d="M128 512h1024v128h-1024v-128z" />
<glyph unicode="&#x2014;" horiz-adv-x="2304" d="M128 512h2048v128h-2048v-128z" />
<glyph unicode="&#x202f;" horiz-adv-x="273" />
<glyph unicode="&#x205f;" horiz-adv-x="341" />
<glyph unicode="&#x20ac;" horiz-adv-x="1152" d="M128 128h128v-256h128v-128h512v128h128v128h-256v-128h-256v128h-128v128h384v128h-384v128h512v128h-512v128h128v128h256v-128h256v128h-128v128h-512v-128h-128v-256h-128v-128h128v-128h-128v-128z" />
<glyph unicode="&#x25fc;" horiz-adv-x="640" d="M0 0v640h640v-640h-640z" />
</font>
</defs>
</svg>
